<svg width="1600" height="900" viewBox="0 0 1600 900" fill="none" xmlns="http://www.w3.org/2000/svg">
  <defs>
    <linearGradient id="ghostBand" x1="322" y1="454" x2="1290" y2="454" gradientUnits="userSpaceOnUse">
      <stop offset="0" stop-color="#000000" stop-opacity="0"/>
      <stop offset="0.16" stop-color="#0E0F11" stop-opacity="0.36"/>
      <stop offset="0.52" stop-color="#1A1C20" stop-opacity="0.56"/>
      <stop offset="0.84" stop-color="#0F1012" stop-opacity="0.32"/>
      <stop offset="1" stop-color="#000000" stop-opacity="0"/>
    </linearGradient>
    <linearGradient id="lineGray" x1="392" y1="328" x2="1186" y2="566" gradientUnits="userSpaceOnUse">
      <stop offset="0" stop-color="#CFC9C2" stop-opacity="0.14"/>
      <stop offset="0.3" stop-color="#7C7F87" stop-opacity="0.22"/>
      <stop offset="0.72" stop-color="#3D4046" stop-opacity="0.20"/>
      <stop offset="1" stop-color="#121316" stop-opacity="0"/>
    </linearGradient>
    <filter id="fog" x="240" y="222" width="1120" height="432" filterUnits="userSpaceOnUse" color-interpolation-filters="sRGB">
      <feGaussianBlur stdDeviation="20"/>
    </filter>
    <filter id="typeShadow" x="212" y="216" width="1180" height="446" filterUnits="userSpaceOnUse" color-interpolation-filters="sRGB">
      <feOffset dy="4"/>
      <feGaussianBlur stdDeviation="10"/>
      <feColorMatrix type="matrix" values="0 0 0 0 0.04 0 0 0 0 0.04 0 0 0 0 0.05 0 0 0 0.72 0"/>
      <feBlend in="SourceGraphic"/>
    </filter>
    <mask id="sliceMask">
      <rect width="1600" height="900" fill="black"/>
      <text x="798" y="454" text-anchor="middle" fill="white" font-size="164" font-family="Impact, Haettenschweiler, 'Arial Narrow Bold', sans-serif" font-weight="700" letter-spacing="12" transform="skewX(-12)">SHADOW</text>
      <text x="832" y="596" text-anchor="middle" fill="white" font-size="156" font-family="Impact, Haettenschweiler, 'Arial Narrow Bold', sans-serif" font-weight="700" letter-spacing="12" transform="skewX(-12)">SELF</text>
      <rect x="270" y="474" width="1040" height="14" fill="black"/>
      <rect x="514" y="330" width="286" height="10" fill="black" transform="rotate(-7 514 330)"/>
      <rect x="808" y="618" width="340" height="10" fill="black" transform="rotate(-7 808 618)"/>
      <rect x="908" y="372" width="224" height="8" fill="black" transform="rotate(12 908 372)"/>
      <rect x="394" y="558" width="250" height="8" fill="black" transform="rotate(12 394 558)"/>
    </mask>
  </defs>

  <g filter="url(#fog)" opacity="0.8">
    <path d="M344 454C366 386 482 354 690 348L1098 350C1216 356 1284 388 1290 446C1296 504 1236 544 1114 554L654 556C452 552 324 516 344 454Z" fill="url(#ghostBand)"/>
  </g>

  <g mask="url(#sliceMask)">
    <rect x="252" y="218" width="1098" height="438" fill="#E4DFD8"/>
    <path d="M248 470H1350" stroke="#0A0B0C" stroke-opacity="0.88" stroke-width="14"/>
    <path d="M310 324H884" stroke="url(#lineGray)" stroke-width="8"/>
    <path d="M742 620H1270" stroke="url(#lineGray)" stroke-width="8"/>
    <path d="M916 292L1180 388" stroke="#5F636A" stroke-opacity="0.28" stroke-width="6"/>
    <path d="M362 566L612 652" stroke="#5F636A" stroke-opacity="0.22" stroke-width="6"/>
    <path d="M268 438L1324 438" stroke="#F0EBE5" stroke-opacity="0.06" stroke-width="2"/>
    <path d="M286 512L1342 512" stroke="#000000" stroke-opacity="0.14" stroke-width="2"/>
  </g>

  <g filter="url(#typeShadow)" opacity="0.14">
    <text x="798" y="454" text-anchor="middle" fill="#6B7078" font-size="164" font-family="Impact, Haettenschweiler, 'Arial Narrow Bold', sans-serif" font-weight="700" letter-spacing="12" transform="skewX(-12)">SHADOW</text>
    <text x="832" y="596" text-anchor="middle" fill="#6B7078" font-size="156" font-family="Impact, Haettenschweiler, 'Arial Narrow Bold', sans-serif" font-weight="700" letter-spacing="12" transform="skewX(-12)">SELF</text>
  </g>

  <g opacity="0.16">
    <path d="M286 450H350" stroke="#E8E2DB" stroke-width="2"/>
    <path d="M1250 450H1314" stroke="#E8E2DB" stroke-width="2"/>
    <path d="M334 590H404" stroke="#7A7D84" stroke-width="2"/>
    <path d="M1194 328H1260" stroke="#7A7D84" stroke-width="2"/>
  </g>
</svg>
