<svg width="1600" height="900" viewBox="0 0 1600 900" fill="none" xmlns="http://www.w3.org/2000/svg">
  <defs>
    <linearGradient id="frameGlow" x1="244" y1="118" x2="1376" y2="774" gradientUnits="userSpaceOnUse">
      <stop offset="0" stop-color="#311011"/>
      <stop offset="0.5" stop-color="#5A1718"/>
      <stop offset="1" stop-color="#261011"/>
    </linearGradient>
    <linearGradient id="innerGlow" x1="361" y1="228" x2="1248" y2="650" gradientUnits="userSpaceOnUse">
      <stop offset="0" stop-color="#E2DAD3" stop-opacity="0.20"/>
      <stop offset="0.4" stop-color="#5B1718" stop-opacity="0.12"/>
      <stop offset="1" stop-color="#120406" stop-opacity="0"/>
    </linearGradient>
    <linearGradient id="textGlow" x1="482" y1="318" x2="1160" y2="632" gradientUnits="userSpaceOnUse">
      <stop offset="0" stop-color="#EEE7E0"/>
      <stop offset="0.45" stop-color="#D0C7BF"/>
      <stop offset="0.8" stop-color="#6B1A1B"/>
      <stop offset="1" stop-color="#EEE7E0"/>
    </linearGradient>
    <filter id="softGlow" x="132" y="47" width="1336" height="806" filterUnits="userSpaceOnUse" color-interpolation-filters="sRGB">
      <feGaussianBlur stdDeviation="18" result="blur"/>
      <feColorMatrix in="blur" type="matrix" values="1 0 0 0 0  0 0.18 0 0 0  0 0 0.03 0 0  0 0 0 0.62 0"/>
    </filter>
    <filter id="textShadow" x="390" y="218" width="824" height="404" filterUnits="userSpaceOnUse" color-interpolation-filters="sRGB">
      <feOffset dy="6"/>
      <feGaussianBlur stdDeviation="10"/>
      <feColorMatrix type="matrix" values="0 0 0 0 0.11 0 0 0 0 0.02 0 0 0 0 0.03 0 0 0 0.72 0"/>
      <feBlend in2="SourceGraphic" mode="normal"/>
    </filter>
    <pattern id="scan" width="8" height="8" patternUnits="userSpaceOnUse">
      <rect width="8" height="8" fill="transparent"/>
      <rect y="0" width="8" height="1" fill="#FFFFFF" fill-opacity="0.03"/>
    </pattern>
  </defs>

  <g opacity="0.90">
    <path d="M250 126H1320L1398 204V690L1315 772H282L202 691V197L250 126Z" stroke="url(#frameGlow)" stroke-width="4"/>
    <path d="M286 160H1277L1360 243V655L1278 739H320L240 659V242L286 160Z" stroke="#421314" stroke-opacity="0.82" stroke-width="2"/>
    <g filter="url(#softGlow)">
      <path d="M286 160H1277L1360 243V655L1278 739H320L240 659V242L286 160Z" stroke="#621718" stroke-opacity="0.52" stroke-width="7"/>
    </g>
  </g>

  <path d="M320 196H1248L1319 266V631L1247 700H354L282 630V264L320 196Z" fill="url(#innerGlow)"/>
  <path d="M320 196H1248L1319 266V631L1247 700H354L282 630V264L320 196Z" fill="url(#scan)" opacity="0.40"/>

  <path d="M352 232L478 232" stroke="#621718" stroke-width="3"/>
  <path d="M1120 664L1246 664" stroke="#621718" stroke-width="3"/>
  <path d="M1132 234L1242 344" stroke="#4A1415" stroke-width="2" opacity="0.58"/>
  <path d="M360 552L468 660" stroke="#4A1415" stroke-width="2" opacity="0.58"/>
  <path d="M410 434H1188" stroke="#311011" stroke-opacity="0.48" stroke-width="1"/>

  <g filter="url(#textShadow)">
    <text x="800" y="398" text-anchor="middle" fill="url(#textGlow)" font-size="164" font-family="Palatino Linotype, Book Antiqua, Palatino, serif" font-weight="700" letter-spacing="14">SHADOW</text>
    <text x="800" y="554" text-anchor="middle" fill="url(#textGlow)" font-size="164" font-family="Palatino Linotype, Book Antiqua, Palatino, serif" font-weight="700" letter-spacing="14">SELF</text>
  </g>

  <path d="M480 624H1120" stroke="#621718" stroke-width="3" stroke-linecap="square"/>
  <path d="M538 624L510 652" stroke="#621718" stroke-width="3"/>
  <path d="M1090 596L1118 624" stroke="#621718" stroke-width="3"/>
  <text x="800" y="677" text-anchor="middle" fill="#B7AEA8" font-size="26" font-family="Consolas, 'Courier New', monospace" letter-spacing="8">AI MEDIA / SOFTWARE / EXPERIMENTS</text>
</svg>
