<svg width="240" height="160" viewBox="0 0 240 160" fill="none" xmlns="http://www.w3.org/2000/svg">
  <defs>
    <radialGradient id="body" cx="0" cy="0" r="1" gradientUnits="userSpaceOnUse" gradientTransform="translate(120 80) rotate(90) scale(54 76)">
      <stop offset="0" stop-color="#A11E32" stop-opacity="0.86"/>
      <stop offset="0.42" stop-color="#741425" stop-opacity="0.48"/>
      <stop offset="0.82" stop-color="#170308" stop-opacity="0.12"/>
      <stop offset="1" stop-color="#000000" stop-opacity="0"/>
    </radialGradient>
    <linearGradient id="shard" x1="58" y1="36" x2="182" y2="114" gradientUnits="userSpaceOnUse">
      <stop offset="0" stop-color="#F0E8E1" stop-opacity="0.78"/>
      <stop offset="0.22" stop-color="#CA4D61" stop-opacity="0.9"/>
      <stop offset="0.72" stop-color="#861C2D" stop-opacity="0.58"/>
      <stop offset="1" stop-color="#1B0409" stop-opacity="0.08"/>
    </linearGradient>
    <filter id="mist" x="14" y="8" width="212" height="144" filterUnits="userSpaceOnUse" color-interpolation-filters="sRGB">
      <feGaussianBlur stdDeviation="8"/>
    </filter>
    <mask id="fade">
      <rect width="240" height="160" fill="black"/>
      <g filter="url(#mist)">
        <path d="M46 82C50 45 82 22 120 20C172 16 204 40 208 76C212 112 180 134 132 138C78 143 42 119 46 82Z" fill="white"/>
      </g>
    </mask>
    <filter id="type" x="54" y="34" width="132" height="98" filterUnits="userSpaceOnUse" color-interpolation-filters="sRGB">
      <feOffset dy="1"/>
      <feGaussianBlur stdDeviation="2.5"/>
      <feColorMatrix type="matrix" values="0 0 0 0 0.2 0 0 0 0 0.02 0 0 0 0 0.05 0 0 0 0.42 0"/>
      <feBlend in="SourceGraphic"/>
    </filter>
  </defs>
  <g mask="url(#fade)">
    <path d="M46 82C50 45 82 22 120 20C172 16 204 40 208 76C212 112 180 134 132 138C78 143 42 119 46 82Z" fill="url(#body)"/>
    <path d="M70 94L88 50L128 50L156 34L192 52L162 104L110 104L86 118L62 104L70 94Z" fill="url(#shard)" opacity="0.9"/>
    <path d="M84 48H112" stroke="#E9E0DA" stroke-opacity="0.24" stroke-width="1.5"/>
    <path d="M148 112H182" stroke="#B13346" stroke-opacity="0.3" stroke-width="1.5"/>
  </g>
  <g filter="url(#type)">
    <text x="120" y="95" text-anchor="middle" fill="#F0E9E2" stroke="#8C1E30" stroke-opacity="0.28" stroke-width="1.2" font-size="54" font-family="Palatino Linotype, Book Antiqua, Palatino, serif" font-weight="700" letter-spacing="2">SS</text>
  </g>
</svg>
