<svg width="240" height="160" viewBox="0 0 240 160" fill="none" xmlns="http://www.w3.org/2000/svg">
  <defs>
    <radialGradient id="body" cx="0" cy="0" r="1" gradientUnits="userSpaceOnUse" gradientTransform="translate(120 80) rotate(90) scale(54 76)">
      <stop offset="0" stop-color="#751617" stop-opacity="0.76"/>
      <stop offset="0.42" stop-color="#4C1112" stop-opacity="0.42"/>
      <stop offset="0.82" stop-color="#180506" stop-opacity="0.10"/>
      <stop offset="1" stop-color="#000000" stop-opacity="0"/>
    </radialGradient>
    <linearGradient id="shard" x1="58" y1="36" x2="182" y2="114" gradientUnits="userSpaceOnUse">
      <stop offset="0" stop-color="#E6DDD6" stop-opacity="0.72"/>
      <stop offset="0.22" stop-color="#7B201E" stop-opacity="0.68"/>
      <stop offset="0.72" stop-color="#541516" stop-opacity="0.50"/>
      <stop offset="1" stop-color="#170506" stop-opacity="0.08"/>
    </linearGradient>
    <filter id="mist" x="14" y="8" width="212" height="144" filterUnits="userSpaceOnUse" color-interpolation-filters="sRGB">
      <feGaussianBlur stdDeviation="8"/>
    </filter>
    <mask id="fade">
      <rect width="240" height="160" fill="black"/>
      <g filter="url(#mist)">
        <path d="M46 82C50 45 82 22 120 20C172 16 204 40 208 76C212 112 180 134 132 138C78 143 42 119 46 82Z" fill="white"/>
      </g>
    </mask>
    <filter id="type" x="54" y="34" width="132" height="98" filterUnits="userSpaceOnUse" color-interpolation-filters="sRGB">
      <feOffset dy="1"/>
      <feGaussianBlur stdDeviation="2.5"/>
      <feColorMatrix type="matrix" values="0 0 0 0 0.16 0 0 0 0 0.02 0 0 0 0 0.04 0 0 0 0.36 0"/>
      <feBlend in="SourceGraphic"/>
    </filter>
  </defs>
  <g mask="url(#fade)">
    <path d="M46 82C50 45 82 22 120 20C172 16 204 40 208 76C212 112 180 134 132 138C78 143 42 119 46 82Z" fill="url(#body)"/>
    <path d="M70 94L88 50L128 50L156 34L192 52L162 104L110 104L86 118L62 104L70 94Z" fill="url(#shard)" opacity="0.88"/>
    <path d="M84 48H112" stroke="#E6DCD5" stroke-opacity="0.18" stroke-width="1.5"/>
    <path d="M148 112H182" stroke="#5B1718" stroke-opacity="0.22" stroke-width="1.5"/>
  </g>
  <g filter="url(#type)">
    <text x="120" y="95" text-anchor="middle" fill="#ECE4DD" stroke="#5E1718" stroke-opacity="0.18" stroke-width="1.2" font-size="54" font-family="Palatino Linotype, Book Antiqua, Palatino, serif" font-weight="700" letter-spacing="2">SS</text>
  </g>
</svg>
