<svg width="520" height="140" viewBox="0 0 520 140" fill="none" xmlns="http://www.w3.org/2000/svg">
  <defs>
    <radialGradient id="body" cx="0" cy="0" r="1" gradientUnits="userSpaceOnUse" gradientTransform="translate(262 70) rotate(90) scale(54 172)">
      <stop offset="0" stop-color="#9F1E31" stop-opacity="0.82"/>
      <stop offset="0.44" stop-color="#6F1323" stop-opacity="0.46"/>
      <stop offset="0.84" stop-color="#170308" stop-opacity="0.1"/>
      <stop offset="1" stop-color="#000000" stop-opacity="0"/>
    </radialGradient>
    <linearGradient id="shard" x1="104" y1="40" x2="404" y2="98" gradientUnits="userSpaceOnUse">
      <stop offset="0" stop-color="#F0E7E0" stop-opacity="0.7"/>
      <stop offset="0.22" stop-color="#C84D61" stop-opacity="0.84"/>
      <stop offset="0.72" stop-color="#861B2D" stop-opacity="0.56"/>
      <stop offset="1" stop-color="#1D040A" stop-opacity="0.06"/>
    </linearGradient>
    <filter id="mist" x="18" y="4" width="484" height="132" filterUnits="userSpaceOnUse" color-interpolation-filters="sRGB">
      <feGaussianBlur stdDeviation="10"/>
    </filter>
    <mask id="fade">
      <rect width="520" height="140" fill="black"/>
      <g filter="url(#mist)">
        <path d="M62 72C69 36 115 15 212 12C336 8 426 27 444 62C458 91 425 120 338 129C214 143 55 112 62 72Z" fill="white"/>
      </g>
    </mask>
    <filter id="type" x="64" y="18" width="394" height="106" filterUnits="userSpaceOnUse" color-interpolation-filters="sRGB">
      <feOffset dy="1"/>
      <feGaussianBlur stdDeviation="3"/>
      <feColorMatrix type="matrix" values="0 0 0 0 0.2 0 0 0 0 0.02 0 0 0 0 0.05 0 0 0 0.45 0"/>
      <feBlend in="SourceGraphic"/>
    </filter>
  </defs>

  <g mask="url(#fade)">
    <path d="M62 72C69 36 115 15 212 12C336 8 426 27 444 62C458 91 425 120 338 129C214 143 55 112 62 72Z" fill="url(#body)"/>
    <path d="M102 84L144 42L268 42L334 24L402 42L326 96L194 96L144 112L88 96L102 84Z" fill="url(#shard)" opacity="0.88"/>
    <path d="M126 42H178" stroke="#E9E0DA" stroke-opacity="0.22" stroke-width="2"/>
    <path d="M334 100H396" stroke="#B03245" stroke-opacity="0.3" stroke-width="2"/>
    <path d="M344 30L394 80" stroke="#7F192A" stroke-opacity="0.3" stroke-width="2"/>
  </g>

  <g filter="url(#type)">
    <text x="260" y="82" text-anchor="middle" fill="#F0E9E2" stroke="#8C1E30" stroke-opacity="0.28" stroke-width="1.5" font-size="34" font-family="Palatino Linotype, Book Antiqua, Palatino, serif" font-weight="700" letter-spacing="4">AI DISCLOSURE</text>
  </g>
</svg>
