<svg width="620" height="152" viewBox="0 0 620 152" fill="none" xmlns="http://www.w3.org/2000/svg">
  <defs>
    <linearGradient id="band" x1="68" y1="76" x2="552" y2="76" gradientUnits="userSpaceOnUse">
      <stop offset="0" stop-color="#000000" stop-opacity="0"/>
      <stop offset="0.16" stop-color="#101215" stop-opacity="0.34"/>
      <stop offset="0.5" stop-color="#1A1D22" stop-opacity="0.54"/>
      <stop offset="0.84" stop-color="#101215" stop-opacity="0.34"/>
      <stop offset="1" stop-color="#000000" stop-opacity="0"/>
    </linearGradient>
    <linearGradient id="cut" x1="156" y1="42" x2="464" y2="110" gradientUnits="userSpaceOnUse">
      <stop offset="0" stop-color="#EEE8E1" stop-opacity="0.12"/>
      <stop offset="0.28" stop-color="#8A8D95" stop-opacity="0.22"/>
      <stop offset="0.7" stop-color="#43464D" stop-opacity="0.18"/>
      <stop offset="1" stop-color="#111316" stop-opacity="0"/>
    </linearGradient>
    <filter id="blur" x="18" y="12" width="584" height="128" filterUnits="userSpaceOnUse" color-interpolation-filters="sRGB">
      <feGaussianBlur stdDeviation="10"/>
    </filter>
    <mask id="mask">
      <rect width="620" height="152" fill="black"/>
      <g filter="url(#blur)">
        <path d="M56 78C64 38 116 18 226 14L414 14C516 18 570 42 576 76C582 108 536 132 434 138L212 138C106 134 48 112 56 78Z" fill="white"/>
      </g>
    </mask>
    <filter id="typeShadow" x="82" y="20" width="456" height="108" filterUnits="userSpaceOnUse" color-interpolation-filters="sRGB">
      <feOffset dy="1"/>
      <feGaussianBlur stdDeviation="3"/>
      <feColorMatrix type="matrix" values="0 0 0 0 0.03 0 0 0 0 0.03 0 0 0 0 0.04 0 0 0 0.55 0"/>
      <feBlend in="SourceGraphic"/>
    </filter>
  </defs>
  <g mask="url(#mask)">
    <path d="M56 78C64 38 116 18 226 14L414 14C516 18 570 42 576 76C582 108 536 132 434 138L212 138C106 134 48 112 56 78Z" fill="url(#band)"/>
    <path d="M122 92L164 46L334 46L390 30L500 34L542 54L500 106L304 106L240 122L138 118L98 102L122 92Z" fill="url(#cut)" opacity="0.92"/>
    <path d="M156 44H244" stroke="#E9E3DC" stroke-opacity="0.14" stroke-width="2"/>
    <path d="M382 116H498" stroke="#6D7179" stroke-opacity="0.20" stroke-width="2"/>
    <path d="M420 34L500 82" stroke="#50535A" stroke-opacity="0.22" stroke-width="2"/>
  </g>
  <g filter="url(#typeShadow)">
    <text x="310" y="87" text-anchor="middle" fill="#E8E2DB" stroke="#545860" stroke-opacity="0.14" stroke-width="1.5" font-size="39" font-family="Bahnschrift SemiCondensed, Segoe UI Semibold, Trebuchet MS, sans-serif" font-weight="600" letter-spacing="4">AI DISCLOSURE</text>
  </g>
</svg>
