<svg width="520" height="120" viewBox="0 0 520 120" fill="none" xmlns="http://www.w3.org/2000/svg">
  <defs>
    <radialGradient id="body" cx="0" cy="0" r="1" gradientUnits="userSpaceOnUse" gradientTransform="translate(260 60) rotate(90) scale(50 182)">
      <stop offset="0" stop-color="#721617" stop-opacity="0.7"/>
      <stop offset="0.42" stop-color="#4C1112" stop-opacity="0.36"/>
      <stop offset="0.84" stop-color="#170506" stop-opacity="0.08"/>
      <stop offset="1" stop-color="#000000" stop-opacity="0"/>
    </radialGradient>
    <linearGradient id="shard" x1="96" y1="34" x2="428" y2="90" gradientUnits="userSpaceOnUse">
      <stop offset="0" stop-color="#E7DED7" stop-opacity="0.62"/>
      <stop offset="0.2" stop-color="#7B201E" stop-opacity="0.68"/>
      <stop offset="0.7" stop-color="#531516" stop-opacity="0.46"/>
      <stop offset="1" stop-color="#170506" stop-opacity="0.06"/>
    </linearGradient>
    <filter id="mist" x="20" y="6" width="480" height="112" filterUnits="userSpaceOnUse" color-interpolation-filters="sRGB">
      <feGaussianBlur stdDeviation="8"/>
    </filter>
    <mask id="fade">
      <rect width="520" height="120" fill="black"/>
      <g filter="url(#mist)">
        <path d="M62 68C68 34 118 16 218 12C344 8 434 24 454 56C468 82 438 106 352 114C214 126 54 104 62 68Z" fill="white"/>
      </g>
    </mask>
    <filter id="type" x="64" y="14" width="392" height="94" filterUnits="userSpaceOnUse" color-interpolation-filters="sRGB">
      <feOffset dy="1"/>
      <feGaussianBlur stdDeviation="3"/>
      <feColorMatrix type="matrix" values="0 0 0 0 0.16 0 0 0 0 0.02 0 0 0 0 0.04 0 0 0 0.38 0"/>
      <feBlend in="SourceGraphic"/>
    </filter>
  </defs>
  <g mask="url(#fade)">
    <path d="M62 68C68 34 118 16 218 12C344 8 434 24 454 56C468 82 438 106 352 114C214 126 54 104 62 68Z" fill="url(#body)"/>
    <path d="M104 82L144 36L262 36L326 22L420 32L454 52L406 92L270 92L198 104L118 96L92 86L104 82Z" fill="url(#shard)" opacity="0.88"/>
    <path d="M132 38H214" stroke="#E4DBD4" stroke-opacity="0.16" stroke-width="2"/>
    <path d="M336 96H418" stroke="#591718" stroke-opacity="0.22" stroke-width="2"/>
    <path d="M356 28L430 76" stroke="#471314" stroke-opacity="0.22" stroke-width="2"/>
  </g>
  <g filter="url(#type)">
    <text x="260" y="60" text-anchor="middle" fill="#ECE4DD" stroke="#5D1718" stroke-opacity="0.18" stroke-width="1.4" font-size="28" font-family="Palatino Linotype, Book Antiqua, Palatino, serif" font-weight="700" letter-spacing="3">GAMES /</text>
    <text x="260" y="88" text-anchor="middle" fill="#ECE4DD" stroke="#5D1718" stroke-opacity="0.18" stroke-width="1.4" font-size="28" font-family="Palatino Linotype, Book Antiqua, Palatino, serif" font-weight="700" letter-spacing="3">SOFTWARE</text>
  </g>
</svg>
