<svg width="420" height="120" viewBox="0 0 420 120" fill="none" xmlns="http://www.w3.org/2000/svg">
  <defs>
    <radialGradient id="body" cx="0" cy="0" r="1" gradientUnits="userSpaceOnUse" gradientTransform="translate(210 60) rotate(90) scale(48 150)">
      <stop offset="0" stop-color="#721617" stop-opacity="0.72"/>
      <stop offset="0.44" stop-color="#4C1112" stop-opacity="0.38"/>
      <stop offset="0.84" stop-color="#170506" stop-opacity="0.08"/>
      <stop offset="1" stop-color="#000000" stop-opacity="0"/>
    </radialGradient>
    <linearGradient id="shard" x1="78" y1="36" x2="334" y2="86" gradientUnits="userSpaceOnUse">
      <stop offset="0" stop-color="#E7DED7" stop-opacity="0.66"/>
      <stop offset="0.22" stop-color="#7B201E" stop-opacity="0.68"/>
      <stop offset="0.72" stop-color="#531516" stop-opacity="0.48"/>
      <stop offset="1" stop-color="#170506" stop-opacity="0.06"/>
    </linearGradient>
    <filter id="mist" x="18" y="6" width="384" height="110" filterUnits="userSpaceOnUse" color-interpolation-filters="sRGB">
      <feGaussianBlur stdDeviation="8"/>
    </filter>
    <mask id="fade">
      <rect width="420" height="120" fill="black"/>
      <g filter="url(#mist)">
        <path d="M56 66C62 34 100 16 184 12C288 8 360 26 372 58C382 86 352 108 278 114C170 124 48 102 56 66Z" fill="white"/>
      </g>
    </mask>
    <filter id="type" x="78" y="18" width="264" height="88" filterUnits="userSpaceOnUse" color-interpolation-filters="sRGB">
      <feOffset dy="1"/>
      <feGaussianBlur stdDeviation="3"/>
      <feColorMatrix type="matrix" values="0 0 0 0 0.16 0 0 0 0 0.02 0 0 0 0 0.04 0 0 0 0.38 0"/>
      <feBlend in="SourceGraphic"/>
    </filter>
  </defs>
  <g mask="url(#fade)">
    <path d="M56 66C62 34 100 16 184 12C288 8 360 26 372 58C382 86 352 108 278 114C170 124 48 102 56 66Z" fill="url(#body)"/>
    <path d="M92 78L126 38L220 38L272 24L336 42L278 88L174 88L132 102L84 90L92 78Z" fill="url(#shard)" opacity="0.86"/>
    <path d="M116 38H158" stroke="#E4DBD4" stroke-opacity="0.16" stroke-width="2"/>
    <path d="M274 92H330" stroke="#591718" stroke-opacity="0.22" stroke-width="2"/>
    <path d="M280 28L326 74" stroke="#471314" stroke-opacity="0.22" stroke-width="2"/>
  </g>
  <g filter="url(#type)">
    <text x="210" y="74" text-anchor="middle" fill="#ECE4DD" stroke="#5D1718" stroke-opacity="0.20" stroke-width="1.5" font-size="38" font-family="Palatino Linotype, Book Antiqua, Palatino, serif" font-weight="700" letter-spacing="4">MEDIA</text>
  </g>
</svg>
