<svg width="520" height="140" viewBox="0 0 520 140" fill="none" xmlns="http://www.w3.org/2000/svg">
  <defs>
    <radialGradient id="body" cx="0" cy="0" r="1" gradientUnits="userSpaceOnUse" gradientTransform="translate(262 70) rotate(90) scale(56 178)">
      <stop offset="0" stop-color="#711517" stop-opacity="0.74"/>
      <stop offset="0.44" stop-color="#4B1112" stop-opacity="0.40"/>
      <stop offset="0.84" stop-color="#170506" stop-opacity="0.08"/>
      <stop offset="1" stop-color="#000000" stop-opacity="0"/>
    </radialGradient>
    <linearGradient id="shard" x1="96" y1="42" x2="414" y2="104" gradientUnits="userSpaceOnUse">
      <stop offset="0" stop-color="#E7DDD6" stop-opacity="0.64"/>
      <stop offset="0.22" stop-color="#7A201E" stop-opacity="0.68"/>
      <stop offset="0.72" stop-color="#511415" stop-opacity="0.48"/>
      <stop offset="1" stop-color="#170506" stop-opacity="0.06"/>
    </linearGradient>
    <filter id="mist" x="18" y="4" width="484" height="132" filterUnits="userSpaceOnUse" color-interpolation-filters="sRGB">
      <feGaussianBlur stdDeviation="10"/>
    </filter>
    <mask id="fade">
      <rect width="520" height="140" fill="black"/>
      <g filter="url(#mist)">
        <path d="M70 76C76 38 124 16 230 12C356 8 440 30 452 66C462 96 422 122 320 129C186 138 62 113 70 76Z" fill="white"/>
      </g>
    </mask>
    <filter id="type" x="42" y="16" width="438" height="112" filterUnits="userSpaceOnUse" color-interpolation-filters="sRGB">
      <feOffset dy="1"/>
      <feGaussianBlur stdDeviation="3"/>
      <feColorMatrix type="matrix" values="0 0 0 0 0.16 0 0 0 0 0.02 0 0 0 0 0.04 0 0 0 0.40 0"/>
      <feBlend in="SourceGraphic"/>
    </filter>
  </defs>

  <g mask="url(#fade)">
    <path d="M70 76C76 38 124 16 230 12C356 8 440 30 452 66C462 96 422 122 320 129C186 138 62 113 70 76Z" fill="url(#body)"/>
    <path d="M94 86L146 42L292 42L356 22L426 44L344 100L186 100L132 116L84 98L94 86Z" fill="url(#shard)" opacity="0.86"/>
    <path d="M132 42H188" stroke="#E4DBD4" stroke-opacity="0.16" stroke-width="2"/>
    <path d="M338 104H406" stroke="#591718" stroke-opacity="0.22" stroke-width="2"/>
    <path d="M354 28L408 82" stroke="#471314" stroke-opacity="0.20" stroke-width="2"/>
  </g>

  <g filter="url(#type)">
    <text x="260" y="63" text-anchor="middle" fill="#ECE4DD" stroke="#5D1718" stroke-opacity="0.20" stroke-width="1.5" font-size="28" font-family="Palatino Linotype, Book Antiqua, Palatino, serif" font-weight="700" letter-spacing="3.5">UPDATES &amp;</text>
    <text x="260" y="96" text-anchor="middle" fill="#ECE4DD" stroke="#5D1718" stroke-opacity="0.20" stroke-width="1.5" font-size="28" font-family="Palatino Linotype, Book Antiqua, Palatino, serif" font-weight="700" letter-spacing="3.5">BRAINFARTS</text>
  </g>
</svg>
