<svg width="620" height="152" viewBox="0 0 620 152" fill="none" xmlns="http://www.w3.org/2000/svg">
  <defs>
    <linearGradient id="band" x1="64" y1="76" x2="558" y2="76" gradientUnits="userSpaceOnUse">
      <stop offset="0" stop-color="#000000" stop-opacity="0"/>
      <stop offset="0.16" stop-color="#101215" stop-opacity="0.34"/>
      <stop offset="0.5" stop-color="#1A1D22" stop-opacity="0.54"/>
      <stop offset="0.84" stop-color="#101215" stop-opacity="0.34"/>
      <stop offset="1" stop-color="#000000" stop-opacity="0"/>
    </linearGradient>
    <linearGradient id="cut" x1="120" y1="40" x2="518" y2="114" gradientUnits="userSpaceOnUse">
      <stop offset="0" stop-color="#EEE8E1" stop-opacity="0.10"/>
      <stop offset="0.28" stop-color="#868A92" stop-opacity="0.22"/>
      <stop offset="0.7" stop-color="#40434A" stop-opacity="0.18"/>
      <stop offset="1" stop-color="#111316" stop-opacity="0"/>
    </linearGradient>
    <filter id="blur" x="18" y="12" width="584" height="128" filterUnits="userSpaceOnUse" color-interpolation-filters="sRGB">
      <feGaussianBlur stdDeviation="10"/>
    </filter>
    <mask id="mask">
      <rect width="620" height="152" fill="black"/>
      <g filter="url(#blur)">
        <path d="M60 82C68 40 126 18 248 14L416 14C522 18 570 44 576 78C582 110 536 134 426 138L220 138C108 134 52 112 60 82Z" fill="white"/>
      </g>
    </mask>
    <filter id="typeShadow" x="58" y="14" width="504" height="124" filterUnits="userSpaceOnUse" color-interpolation-filters="sRGB">
      <feOffset dy="1"/>
      <feGaussianBlur stdDeviation="3"/>
      <feColorMatrix type="matrix" values="0 0 0 0 0.03 0 0 0 0 0.03 0 0 0 0 0.04 0 0 0 0.55 0"/>
      <feBlend in="SourceGraphic"/>
    </filter>
  </defs>
  <g mask="url(#mask)">
    <path d="M60 82C68 40 126 18 248 14L416 14C522 18 570 44 576 78C582 110 536 134 426 138L220 138C108 134 52 112 60 82Z" fill="url(#band)"/>
    <path d="M108 94L160 44L356 44L428 28L520 36L552 58L512 108L284 108L216 122L122 118L94 104L108 94Z" fill="url(#cut)" opacity="0.92"/>
    <path d="M148 42H232" stroke="#E9E3DC" stroke-opacity="0.12" stroke-width="2"/>
    <path d="M390 118H510" stroke="#6A6E76" stroke-opacity="0.18" stroke-width="2"/>
    <path d="M436 36L520 84" stroke="#4D5057" stroke-opacity="0.20" stroke-width="2"/>
  </g>
  <g filter="url(#typeShadow)">
    <text x="310" y="66" text-anchor="middle" fill="#E8E2DB" stroke="#545860" stroke-opacity="0.14" stroke-width="1.5" font-size="31" font-family="Bahnschrift SemiCondensed, Segoe UI Semibold, Trebuchet MS, sans-serif" font-weight="600" letter-spacing="4">UPDATES &amp;</text>
    <text x="310" y="102" text-anchor="middle" fill="#E8E2DB" stroke="#545860" stroke-opacity="0.14" stroke-width="1.5" font-size="31" font-family="Bahnschrift SemiCondensed, Segoe UI Semibold, Trebuchet MS, sans-serif" font-weight="600" letter-spacing="4">BRAINFARTS</text>
  </g>
</svg>
